<svg width="36" height="32" viewBox="0 0 36 32" fill="none" xmlns="http://www.w3.org/2000/svg">
<path d="M19.6982 17.8459V23.9999C19.6982 24.4895 19.5037 24.9591 19.1575 25.3053C18.8112 25.6516 18.3417 25.8461 17.852 25.8461C17.3624 25.8461 16.8928 25.6516 16.5466 25.3053C16.2003 24.9591 16.0058 24.4895 16.0058 23.9999V17.8459C16.0058 17.3563 16.2003 16.8867 16.5466 16.5405C16.8928 16.1943 17.3624 15.9998 17.852 15.9998C18.3417 15.9998 18.8112 16.1943 19.1575 16.5405C19.5037 16.8867 19.6982 17.3563 19.6982 17.8459ZM35.6707 13.329L33.5446 29.3292C33.4441 30.0688 33.079 30.7469 32.517 31.2379C31.9549 31.729 31.2339 31.9997 30.4876 32H5.21644C4.4704 31.9994 3.74979 31.7288 3.18784 31.2381C2.62588 30.7474 2.26058 30.0699 2.15947 29.3307L0.0271305 13.3305C-0.031035 12.8954 0.0045739 12.4529 0.131566 12.0327C0.258558 11.6124 0.473993 11.2243 0.763404 10.8942C1.05281 10.5641 1.4095 10.2998 1.80951 10.119C2.20951 9.93817 2.64358 9.84503 3.08256 9.84582H8.39803L16.4674 0.630301C16.6407 0.432313 16.8543 0.273649 17.0939 0.164943C17.3335 0.0562373 17.5935 0 17.8566 0C18.1197 0 18.3798 0.0562373 18.6194 0.164943C18.859 0.273649 19.0726 0.432313 19.2459 0.630301L27.306 9.84582H32.6215C33.0597 9.84615 33.4927 9.94007 33.8917 10.1213C34.2906 10.3025 34.6463 10.5668 34.9348 10.8966C35.2234 11.2264 35.4381 11.614 35.5648 12.0334C35.6914 12.4529 35.727 12.8946 35.6692 13.329H35.6707ZM13.3058 9.84582H22.3998L17.852 4.64882L13.3058 9.84582ZM31.9215 13.5382H3.78565L5.75491 28.3076H29.9491L31.9215 13.5382ZM24.0183 17.6629L23.4029 23.8168C23.3543 24.304 23.5013 24.7905 23.8115 25.1693C24.1216 25.5481 24.5696 25.7882 25.0567 25.8368C25.1183 25.8368 25.1814 25.8461 25.2429 25.8461C25.7003 25.8453 26.1411 25.6747 26.4799 25.3675C26.8187 25.0602 27.0314 24.6381 27.0768 24.183L27.6922 18.029C27.7193 17.7862 27.6979 17.5405 27.6294 17.306C27.5608 17.0716 27.4464 16.853 27.2928 16.6631C27.1392 16.4732 26.9494 16.3156 26.7344 16.1996C26.5194 16.0835 26.2836 16.0113 26.0405 15.9871C25.7974 15.9628 25.5519 15.9871 25.3183 16.0584C25.0846 16.1298 24.8675 16.2467 24.6794 16.4026C24.4913 16.5585 24.336 16.7502 24.2225 16.9665C24.109 17.1828 24.0396 17.4195 24.0183 17.6629ZM11.6919 17.6629C11.638 17.18 11.3959 16.7379 11.0182 16.4324C10.6405 16.1268 10.1575 15.9825 9.67405 16.0307C9.19061 16.0789 8.74564 16.3157 8.43564 16.6897C8.12563 17.0638 7.97558 17.545 8.01802 18.029L8.63341 24.183C8.67877 24.6381 8.89146 25.0602 9.23028 25.3675C9.56909 25.6747 10.0099 25.8453 10.4673 25.8461C10.5273 25.8461 10.5904 25.8461 10.6519 25.8368C11.1391 25.7882 11.587 25.5481 11.8972 25.1693C12.2073 24.7905 12.3543 24.304 12.3058 23.8168L11.6919 17.6629Z" fill="#FEECE0"/>
</svg>
