<svg width="38" height="32" viewBox="0 0 38 32" fill="none" xmlns="http://www.w3.org/2000/svg">
<path d="M11.2593 5.33333V1.77778C11.2593 1.30628 11.4466 0.854097 11.78 0.520699C12.1134 0.187301 12.5655 7.06425e-08 13.037 7.06425e-08C13.5085 7.06425e-08 13.9607 0.187301 14.2941 0.520699C14.6275 0.854097 14.8148 1.30628 14.8148 1.77778V5.33333C14.8148 5.80483 14.6275 6.25701 14.2941 6.59041C13.9607 6.92381 13.5085 7.11111 13.037 7.11111C12.5655 7.11111 12.1134 6.92381 11.78 6.59041C11.4466 6.25701 11.2593 5.80483 11.2593 5.33333ZM18.963 7.11111C19.4345 7.11111 19.8866 6.92381 20.22 6.59041C20.5534 6.25701 20.7407 5.80483 20.7407 5.33333V1.77778C20.7407 1.30628 20.5534 0.854097 20.22 0.520699C19.8866 0.187301 19.4345 0 18.963 0C18.4915 0 18.0393 0.187301 17.7059 0.520699C17.3725 0.854097 17.1852 1.30628 17.1852 1.77778V5.33333C17.1852 5.80483 17.3725 6.25701 17.7059 6.59041C18.0393 6.92381 18.4915 7.11111 18.963 7.11111ZM24.8889 7.11111C25.3604 7.11111 25.8126 6.92381 26.146 6.59041C26.4794 6.25701 26.6667 5.80483 26.6667 5.33333V1.77778C26.6667 1.30628 26.4794 0.854097 26.146 0.520699C25.8126 0.187301 25.3604 0 24.8889 0C24.4174 0 23.9652 0.187301 23.6318 0.520699C23.2984 0.854097 23.1111 1.30628 23.1111 1.77778V5.33333C23.1111 5.80483 23.2984 6.25701 23.6318 6.59041C23.9652 6.92381 24.4174 7.11111 24.8889 7.11111ZM37.2148 15.0519L33.1852 18.0741V26.6667C33.1852 28.0812 32.6233 29.4377 31.6231 30.4379C30.6229 31.4381 29.2663 32 27.8519 32H10.0741C8.65959 32 7.30304 31.4381 6.30284 30.4379C5.30265 29.4377 4.74075 28.0812 4.74075 26.6667V18.0741L0.711118 15.0519C0.333922 14.769 0.0845544 14.3478 0.0178748 13.881C-0.0488048 13.4143 0.0726652 12.9402 0.355563 12.563C0.63846 12.1858 1.05961 11.9364 1.52637 11.8697C1.99313 11.803 2.46725 11.9245 2.84445 12.2074L4.74075 13.6296V12.4444C4.74075 11.6586 5.05292 10.905 5.60858 10.3493C6.16424 9.79365 6.91788 9.48148 7.70371 9.48148H30.2222C31.008 9.48148 31.7617 9.79365 32.3174 10.3493C32.873 10.905 33.1852 11.6586 33.1852 12.4444V13.6296L35.0815 12.2074C35.4587 11.9245 35.9328 11.803 36.3996 11.8697C36.8663 11.9364 37.2875 12.1858 37.5704 12.563C37.8533 12.9402 37.9747 13.4143 37.9081 13.881C37.8414 14.3478 37.592 14.769 37.2148 15.0519ZM29.6296 13.037H8.2963V26.6667C8.2963 27.1382 8.4836 27.5903 8.817 27.9237C9.1504 28.2571 9.60258 28.4444 10.0741 28.4444H27.8519C28.3233 28.4444 28.7755 28.2571 29.1089 27.9237C29.4423 27.5903 29.6296 27.1382 29.6296 26.6667V13.037Z" fill="#FEECE0"/>
</svg>
